<svg version="1.1" xmlns="http://www.w3.org/2000/svg" viewBox="-301.0559999465942 -1573.760073852539 7164.638923678645 2390.784063720703"><desc>Created with Snap</desc><defs></defs><g><g transform="matrix(19.7373,0,0,19.7373,4681.345,-1365.2271)"><g transform="translate(0,-952.36218)"><path style="" d="m 45.719885,957.36164 3.18651,38.66594 c -0.0104,0.002 -0.0207,0.005 -0.0312,0.007 -0.004,7.7e-4 -0.008,0.002 -0.0117,0.003 -0.0463,0.009 -0.093,0.0154 -0.13911,0.0247 -0.004,7.6e-4 -0.008,0.002 -0.0116,0.003 -0.0493,0.01 -0.0979,0.0214 -0.14692,0.0325 -0.006,9.5e-4 -0.0104,0.003 -0.0156,0.004 -0.2469,0.0566 -0.49069,0.12668 -0.72935,0.21192 -0.0121,0.005 -0.0243,0.009 -0.0364,0.013 -0.0131,0.005 -0.026,0.009 -0.039,0.0143 l -16.53063,-35.06206 -7.4261,4.25388 22.0885,31.88727 c -0.0888,0.0738 -0.17625,0.14988 -0.26131,0.22881 -0.007,0.007 -0.0138,0.013 -0.0208,0.0195 -0.0278,0.026 -0.0546,0.0528 -0.082,0.0793 -0.0108,0.0104 -0.0218,0.0207 -0.0325,0.0312 -0.027,0.0265 -0.054,0.0535 -0.0806,0.0806 -0.12959,0.13168 -0.25391,0.2685 -0.37052,0.40953 l -31.84697,-22.10018 -4.30459,7.3975 35.07899,16.57354 c -0.003,0.01 -0.006,0.016 -0.009,0.025 -0.0102,0.028 -0.0201,0.055 -0.0299,0.083 -0.004,0.012 -0.008,0.023 -0.0116,0.035 -0.01,0.029 -0.0205,0.057 -0.0299,0.086 -0.008,0.023 -0.0149,0.046 -0.0221,0.069 -0.0107,0.034 -0.0211,0.068 -0.0312,0.1014 -0.005,0.015 -0.009,0.029 -0.013,0.044 -0.009,0.032 -0.0187,0.063 -0.0273,0.095 -0.005,0.019 -0.009,0.037 -0.0143,0.056 -0.007,0.023 -0.0123,0.047 -0.0182,0.07 -0.004,0.015 -0.007,0.029 -0.0104,0.044 -0.0341,0.1397 -0.0639,0.2792 -0.0884,0.4199 l -38.65164,-3.1839 0.0299,8.5572 38.61653,-3.2138 c 0.0675,0.4021 0.1727,0.7969 0.31462,1.1792 l -35.06208,16.5293 4.25389,7.4274 31.88726,-22.0898 c 0.25307,0.3044 0.53719,0.5885 0.85027,0.8463 l -22.10152,31.8496 7.3975,4.3046 16.57354,-35.0803 c 0.37654,0.1391 0.76017,0.2403 1.14668,0.3055 l -3.18652,38.6634 8.55848,-0.03 -3.21511,-38.6374 c 0.0264,-0 0.053,-0.01 0.0793,-0.014 0.0321,-0.01 0.0642,-0.012 0.0962,-0.018 0.0335,-0.01 0.0668,-0.014 0.10011,-0.021 0.29999,-0.063 0.59199,-0.1459 0.87496,-0.2496 l 16.57481,35.0816 7.39621,-4.3046 -22.1015,-31.8496 c 0.30851,-0.2541 0.59265,-0.5371 0.84895,-0.8437 l 31.88727,22.0898 4.25388,-7.4274 -35.05427,-16.5268 c 0.14193,-0.3794 0.24892,-0.7761 0.31722,-1.1856 l 38.63343,3.2151 0.0299,-8.55722 -38.66854,3.18522 c -0.0674,-0.3924 -0.17038,-0.773 -0.30551,-1.1376 l 35.06857,-16.56831 -4.30458,-7.3975 -31.84437,22.0989 c -0.0287,-0.0346 -0.0565,-0.0688 -0.0858,-0.1027 -0.10171,-0.11774 -0.20865,-0.23059 -0.31853,-0.34063 -9.4e-4,-9.5e-4 -0.002,-0.003 -0.003,-0.004 -0.0341,-0.0341 -0.0691,-0.068 -0.104,-0.10142 -0.002,-0.002 -0.005,-0.005 -0.007,-0.007 -0.035,-0.0333 -0.071,-0.0663 -0.10661,-0.0988 -0.002,-0.002 -0.004,-0.005 -0.007,-0.007 -0.0357,-0.0325 -0.0714,-0.0633 -0.10791,-0.0949 -0.002,-0.002 -0.004,-0.005 -0.007,-0.007 -0.0335,-0.0291 -0.0686,-0.0575 -0.1027,-0.0858 l 22.08718,-31.88469 -7.42611,-4.25387 -16.52802,35.05687 c -0.37416,-0.13875 -0.76416,-0.24216 -1.16748,-0.30943 l 3.2151,-38.63342 -8.55848,-0.0299 z" fill="#e4473e" fill-opacity="1" fill-rule="nonzero" stroke="none"></path></g><desc>Created with Snap</desc><defs></defs></g><g><g transform="matrix(1.024,0,0,-1.024,0,0)"><path d="M274 -3L234 -3L91 323Q75 361 66 388Q57 415 53 433Q50 451 49 462L6 459L6 500L190 500L190 470Q160 470 151 454Q143 439 149 413Q155 388 167 359L244 183Q252 166 259 147Q267 129 274 109L275 109Q280 124 286 141Q293 158 298 174L378 393Q386 417 395 435Q404 453 408 462L344 459L344 500L502 500L502 470Q480 470 465 455Q450 440 436 410Q423 380 405 335L274 -3ZM549 0L549 30Q580 30 592 45Q604 61 606 88Q608 116 608 152L608 380Q608 396 609 410Q610 425 612 445Q594 444 576 443Q559 442 541 441L541 483Q585 483 609 487Q633 491 645 497Q658 503 665 510L694 510L694 106Q694 86 693 70Q693 55 690 38Q706 39 721 39Q737 40 753 41L753 0L549 0ZM646 609Q625 609 609 626Q593 643 593 668Q593 693 609 710Q626 728 647 728Q670 728 685 710Q701 693 701 668Q701 643 684 626Q668 609 646 609ZM1034 0L830 0L830 30Q861 30 873 45Q885 61 887 88Q889 116 889 152L890 380Q890 396 890 412Q891 428 894 445Q876 444 858 443Q841 442 823 441L823 483Q867 483 889 487Q912 491 923 497Q934 503 941 510L970 510Q971 503 971 494Q972 485 973 474Q974 463 974 449Q996 468 1022 483Q1049 498 1078 507Q1108 516 1137 516Q1224 516 1264 461Q1304 407 1304 292L1304 106Q1304 86 1303 70Q1303 55 1300 38Q1316 39 1331 39Q1347 40 1363 41L1363 0L1159 0L1159 30Q1190 30 1202 45Q1214 61 1216 88Q1218 116 1218 152L1218 292Q1217 378 1189 422Q1162 466 1103 465Q1067 464 1032 446Q998 428 975 400Q976 392 976 382Q976 372 976 361L975 106Q975 86 974 70Q974 55 971 38Q987 39 1002 39Q1018 40 1034 41L1034 0ZM1848 0L1433 0L1433 41L1712 400Q1728 420 1743 439Q1759 459 1769 465L1581 462Q1544 462 1523 442Q1503 423 1494 391Q1485 360 1479 321L1448 321L1460 500L1852 500L1852 468L1570 97Q1557 81 1547 69Q1537 57 1518 41L1711 38Q1753 38 1777 57Q1801 76 1813 109Q1825 142 1831 182L1860 182L1848 0ZM2026 -16Q2003 -16 1985 2Q1968 21 1968 48Q1968 75 1986 94Q2004 113 2027 113Q2052 113 2068 94Q2085 75 2085 48Q2085 21 2067 2Q2049 -16 2026 -16ZM2438 -16Q2371 -16 2314 14Q2258 45 2224 102Q2191 160 2191 241Q2191 293 2210 342Q2229 391 2263 430Q2298 470 2346 493Q2394 516 2452 516Q2508 516 2549 499Q2591 482 2614 454Q2637 426 2637 393Q2637 371 2625 355Q2613 340 2590 340Q2565 339 2554 355Q2544 372 2544 385Q2544 395 2547 405Q2550 416 2559 425Q2551 449 2531 460Q2511 472 2489 475Q2468 479 2454 479Q2386 479 2339 424Q2293 370 2293 266Q2293 199 2314 147Q2336 95 2375 65Q2414 36 2465 36Q2512 36 2555 61Q2598 86 2622 122L2648 102Q2622 60 2585 34Q2549 8 2510 -4Q2472 -16 2438 -16ZM2974 -16Q2904 -16 2847 16Q2790 49 2756 106Q2723 164 2723 238Q2723 317 2756 380Q2789 443 2846 479Q2903 516 2974 516Q3044 516 3101 482Q3158 449 3192 392Q3226 335 3226 262Q3226 185 3192 121Q3159 58 3102 21Q3045 -16 2974 -16ZM2982 24Q3035 24 3066 54Q3097 84 3110 132Q3124 180 3124 233Q3124 278 3115 321Q3107 365 3089 400Q3071 436 3042 457Q3014 478 2974 478Q2922 478 2889 448Q2856 418 2840 370Q2825 322 2825 267Q2825 205 2842 149Q2859 94 2894 59Q2929 24 2982 24ZM3525 -16Q3464 -16 3415 14Q3366 45 3337 102Q3309 159 3309 236Q3309 318 3342 381Q3375 444 3433 480Q3492 516 3566 516Q3599 516 3631 507Q3664 499 3683 488L3683 625Q3683 641 3683 655Q3684 670 3686 690Q3668 689 3650 688Q3633 687 3615 686L3615 728Q3659 728 3683 732Q3707 736 3719 742Q3732 748 3739 755L3768 755L3768 106Q3768 90 3767 74Q3766 58 3764 38Q3782 39 3799 40Q3817 41 3835 42L3835 0L3692 0Q3689 15 3687 27Q3686 40 3685 52Q3657 21 3616 2Q3575 -16 3525 -16ZM3561 33Q3594 33 3627 52Q3661 71 3683 99Q3682 111 3682 124Q3682 138 3682 154L3683 442Q3659 460 3630 468Q3602 477 3572 477Q3522 477 3485 448Q3448 419 3429 367Q3410 315 3412 245Q3414 184 3431 136Q3449 88 3481 60Q3514 33 3561 33ZM4151 -16Q4082 -16 4026 16Q3971 49 3939 108Q3907 168 3907 249Q3907 319 3938 380Q3970 441 4027 478Q4084 516 4159 516Q4201 516 4237 502Q4274 489 4302 461Q4330 434 4346 392Q4362 351 4362 295L4010 289Q4010 213 4026 155Q4043 98 4080 66Q4117 35 4175 35Q4206 35 4238 46Q4271 57 4299 76Q4327 95 4344 118L4368 98Q4341 56 4303 31Q4265 6 4225 -5Q4185 -16 4151 -16ZM4013 331L4268 331Q4268 367 4257 400Q4247 434 4223 455Q4199 477 4160 477Q4102 477 4063 442Q4025 408 4013 331Z" fill="#1a283f" style=""></path></g></g></g></svg>